<svg width="86" height="46" viewBox="0 0 86 46" fill="none" xmlns="http://www.w3.org/2000/svg">
<path d="M27.1813 6.28125H1.5875C0.691668 6.28125 0.243752 5.95833 0.243752 5.3125C0.243752 5.02083 0.452085 4.48958 0.868752 3.71875C1.28542 2.94792 1.775 2.3125 2.3375 1.8125C2.81667 1.375 3.5875 1.15625 4.65 1.15625H30.2438C31.1396 1.15625 31.5875 1.47917 31.5875 2.125C31.5875 2.41667 31.3792 2.94792 30.9625 3.71875C30.5458 4.48958 30.0563 5.125 29.4938 5.625C29.0146 6.0625 28.2438 6.28125 27.1813 6.28125ZM12.2125 43.9688L12.1813 10.0312C12.1813 9.28125 12.4313 8.79167 12.9313 8.5625C13.4521 8.3125 14.2438 8.1875 15.3063 8.1875C16.4729 8.1875 17.2854 8.3125 17.7438 8.5625C18.2229 8.79167 18.4625 9.28125 18.4625 10.0312V40.6562C18.4625 41.5521 18.2542 42.25 17.8375 42.75C17.2958 43.3958 16.5458 43.9896 15.5875 44.5312C14.65 45.0521 13.8896 45.3125 13.3063 45.3125C12.5771 45.3125 12.2125 44.8646 12.2125 43.9688ZM58.2563 23.375L54.5375 39.5625C54.1 41.4583 53.2667 42.8854 52.0375 43.8438C50.7875 44.8229 49.85 45.3125 49.225 45.3125C48.6208 45.3125 48.3188 45 48.3188 44.375C48.3188 43.9375 50.7146 33.1771 55.5063 12.0938C55.6938 11.2604 56.0583 10.8438 56.6 10.8438C57.1833 10.8438 57.7042 11.8333 58.1625 13.8125C58.6417 15.7917 58.8813 17.5312 58.8813 19.0312C58.8813 20.0104 58.6729 21.4583 58.2563 23.375ZM85.5688 2.5625L75.7875 39.5625C75.3708 41.4583 74.5167 42.8854 73.225 43.8438C71.9125 44.8229 70.8813 45.3125 70.1313 45.3125C69.5896 45.3125 69.3188 45.0208 69.3188 44.4375C69.3188 43.8542 69.4958 42.9375 69.85 41.6875L79.225 5.34375C79.5792 4.01042 80.3396 2.875 81.5063 1.9375C82.6938 1 83.7979 0.53125 84.8188 0.53125C85.4438 0.53125 85.7563 0.84375 85.7563 1.46875C85.7563 1.76042 85.6938 2.125 85.5688 2.5625ZM44.7875 37.6562L37.3188 5.375C37.1938 4.75 37.1313 4.36458 37.1313 4.21875C37.1313 3.23958 37.6938 2.38542 38.8188 1.65625C39.9438 0.90625 40.9125 0.53125 41.725 0.53125C42.0792 0.53125 42.3396 0.635417 42.5063 0.84375C42.6729 1.03125 42.8188 1.39583 42.9438 1.9375L48.6625 26.5625C48.8917 27.5833 49.0063 28.6562 49.0063 29.7812C49.0063 32.0729 48.6625 34.2083 47.975 36.1875C47.3083 38.1458 46.6521 39.125 46.0063 39.125C45.4021 39.125 44.9958 38.6354 44.7875 37.6562ZM58.5063 2.6875C58.9854 2.08333 59.6208 1.57292 60.4125 1.15625C61.225 0.739583 61.8917 0.53125 62.4125 0.53125C62.7458 0.53125 63.0063 0.645833 63.1938 0.875C63.3813 1.08333 63.5479 1.45833 63.6938 2L69.975 27.8438C70.225 28.9688 70.35 29.9688 70.35 30.8438C70.35 31.6146 70.1417 32.8542 69.725 34.5625C69.3292 36.25 68.9438 37.4479 68.5688 38.1562C68.1938 38.8438 67.7667 39.1875 67.2875 39.1875C66.6833 39.1875 66.2563 38.6979 66.0063 37.7188L58.0688 5.71875C57.9438 5.23958 57.8813 4.79167 57.8813 4.375C57.8813 3.79167 58.0896 3.22917 58.5063 2.6875Z" fill="#111111"/>
</svg>
