<svg width="334" height="131" viewBox="0 0 334 131" fill="none" xmlns="http://www.w3.org/2000/svg">
<g filter="url(#filter0_ddi_13_15)">
<path d="M56.7938 73.375V101.281C56.7938 102.073 56.6063 102.719 56.2313 103.219C55.6896 103.844 55.0438 104.354 54.2938 104.75C53.5646 105.125 52.8875 105.312 52.2625 105.312C51.5333 105.312 51.1688 104.865 51.1688 103.969V76.0625C51.1688 75.2708 51.3563 74.6354 51.7313 74.1562C52.2729 73.5312 52.9083 73.0208 53.6375 72.625C54.3875 72.2292 55.075 72.0312 55.7 72.0312C56.4292 72.0312 56.7938 72.4792 56.7938 73.375ZM56.7938 57.0938V61.625C56.7938 62.4167 56.6063 63.0625 56.2313 63.5625C55.6896 64.1875 55.0438 64.6979 54.2938 65.0938C53.5646 65.4688 52.8875 65.6562 52.2625 65.6562C51.5333 65.6562 51.1688 65.2083 51.1688 64.3125V59.7812C51.1688 58.9688 51.3563 58.3333 51.7313 57.875C52.2729 57.25 52.9083 56.7396 53.6375 56.3438C54.3875 55.9479 55.075 55.75 55.7 55.75C56.4292 55.75 56.7938 56.1979 56.7938 57.0938ZM76.7125 80.75V101.375C76.7125 101.917 76.5563 102.427 76.2438 102.906C75.9521 103.385 75.5771 103.802 75.1188 104.156C74.6813 104.51 74.1917 104.792 73.65 105C73.1083 105.208 72.6083 105.312 72.15 105.312C71.4417 105.312 71.0875 104.865 71.0875 103.969V80.75C71.0875 80.3542 71.1604 80.0417 71.3063 79.8125C71.4521 79.5833 71.65 79.4167 71.9 79.3125C72.1708 79.1875 72.4729 79.1146 72.8063 79.0938C73.1604 79.0729 73.525 79.0625 73.9 79.0625C74.2958 79.0625 74.6604 79.0833 74.9938 79.125C75.3479 79.1458 75.65 79.2188 75.9 79.3438C76.15 79.4479 76.3479 79.6146 76.4938 79.8438C76.6396 80.0729 76.7125 80.375 76.7125 80.75ZM88.9938 58.7812C89.6396 59.2812 89.9625 59.7708 89.9625 60.25C89.9625 60.7917 89.525 61.4479 88.65 62.2188C87.7958 62.9688 87.0146 63.3438 86.3063 63.3438C85.9104 63.3438 85.2542 63.125 84.3375 62.6875C83.6708 62.375 83.1813 62.1562 82.8688 62.0312C82.5563 61.9062 82.1188 61.7812 81.5563 61.6562C81.0146 61.5312 80.4208 61.4688 79.775 61.4688C77.9 61.4688 75.9417 62.1562 73.9 63.5312C72.9833 64.1354 72.4313 64.4375 72.2438 64.4375C71.8896 64.4375 71.7125 64.2604 71.7125 63.9062C71.7125 63.3854 72.1604 62.5729 73.0563 61.4688C74.3688 59.8646 75.8479 58.7188 77.4938 58.0312C79.1396 57.3438 80.775 57 82.4 57C85.2333 57 87.4313 57.5938 88.9938 58.7812ZM79.2125 77.5H72.7438C72.2229 77.5 71.8167 77.3854 71.525 77.1562C71.2333 76.9271 71.0875 76.4896 71.0875 75.8438V74.7188C71.0875 70.4479 71.5563 67.75 72.4938 66.625C72.9938 66.0208 73.6083 65.5 74.3375 65.0625C75.0875 64.625 75.6813 64.4062 76.1188 64.4062C76.8063 64.4062 77.15 64.7604 77.15 65.4688C77.15 65.5938 77.0979 66.2396 76.9938 67.4062C76.9104 68.5729 76.8688 69.8125 76.8688 71.125C76.8688 71.7292 76.9729 72.1979 77.1813 72.5312C77.4104 72.8438 77.8479 73 78.4938 73H84.8375C85.5667 73 85.9313 73.2396 85.9313 73.7188C85.9313 74.2188 85.5771 74.8542 84.8688 75.625C84.1604 76.375 83.4625 76.875 82.775 77.125C82.1292 77.375 80.9417 77.5 79.2125 77.5ZM69.4625 74.0312V75.8438C69.4625 76.3646 69.3479 76.7708 69.1188 77.0625C68.8896 77.3542 68.4521 77.5 67.8063 77.5H66.3375C65.6083 77.5 65.2438 77.2708 65.2438 76.8125C65.2438 76.25 65.6917 75.4792 66.5875 74.5C67.5042 73.5 68.2333 73 68.775 73C69.2333 73 69.4625 73.3438 69.4625 74.0312ZM101.913 80.75V101.375C101.913 101.917 101.756 102.427 101.444 102.906C101.152 103.385 100.777 103.802 100.319 104.156C99.8813 104.51 99.3917 104.792 98.85 105C98.3083 105.208 97.8083 105.312 97.35 105.312C96.6417 105.312 96.2875 104.865 96.2875 103.969V80.75C96.2875 80.3542 96.3604 80.0417 96.5063 79.8125C96.6521 79.5833 96.85 79.4167 97.1 79.3125C97.3708 79.1875 97.6729 79.1146 98.0063 79.0938C98.3604 79.0729 98.725 79.0625 99.1 79.0625C99.4958 79.0625 99.8604 79.0833 100.194 79.125C100.548 79.1458 100.85 79.2188 101.1 79.3438C101.35 79.4479 101.548 79.6146 101.694 79.8438C101.84 80.0729 101.913 80.375 101.913 80.75ZM114.194 58.7812C114.84 59.2812 115.163 59.7708 115.163 60.25C115.163 60.7917 114.725 61.4479 113.85 62.2188C112.996 62.9688 112.215 63.3438 111.506 63.3438C111.11 63.3438 110.454 63.125 109.538 62.6875C108.871 62.375 108.381 62.1562 108.069 62.0312C107.756 61.9062 107.319 61.7812 106.756 61.6562C106.215 61.5312 105.621 61.4688 104.975 61.4688C103.1 61.4688 101.142 62.1562 99.1 63.5312C98.1833 64.1354 97.6313 64.4375 97.4438 64.4375C97.0896 64.4375 96.9125 64.2604 96.9125 63.9062C96.9125 63.3854 97.3604 62.5729 98.2563 61.4688C99.5688 59.8646 101.048 58.7188 102.694 58.0312C104.34 57.3438 105.975 57 107.6 57C110.433 57 112.631 57.5938 114.194 58.7812ZM104.413 77.5H97.9438C97.4229 77.5 97.0167 77.3854 96.725 77.1562C96.4333 76.9271 96.2875 76.4896 96.2875 75.8438V74.7188C96.2875 70.4479 96.7563 67.75 97.6938 66.625C98.1938 66.0208 98.8083 65.5 99.5375 65.0625C100.288 64.625 100.881 64.4062 101.319 64.4062C102.006 64.4062 102.35 64.7604 102.35 65.4688C102.35 65.5938 102.298 66.2396 102.194 67.4062C102.11 68.5729 102.069 69.8125 102.069 71.125C102.069 71.7292 102.173 72.1979 102.381 72.5312C102.61 72.8438 103.048 73 103.694 73H110.038C110.767 73 111.131 73.2396 111.131 73.7188C111.131 74.2188 110.777 74.8542 110.069 75.625C109.36 76.375 108.663 76.875 107.975 77.125C107.329 77.375 106.142 77.5 104.413 77.5ZM94.6625 74.0312V75.8438C94.6625 76.3646 94.5479 76.7708 94.3188 77.0625C94.0896 77.3542 93.6521 77.5 93.0063 77.5H91.5375C90.8083 77.5 90.4438 77.2708 90.4438 76.8125C90.4438 76.25 90.8917 75.4792 91.7875 74.5C92.7042 73.5 93.4333 73 93.975 73C94.4333 73 94.6625 73.3438 94.6625 74.0312ZM118.144 103.969V87.1562C118.144 85.9896 118.425 85.0938 118.988 84.4688C119.55 83.8229 120.217 83.25 120.988 82.75C121.758 82.2292 122.363 81.9688 122.8 81.9688C123.446 81.9688 123.769 82.4167 123.769 83.3125V101.281C123.769 102.427 123.248 103.385 122.206 104.156C121.185 104.927 120.196 105.312 119.238 105.312C118.508 105.312 118.144 104.865 118.144 103.969ZM125.488 74.6875C126.675 73.8125 127.915 73.1562 129.206 72.7188C130.498 72.2604 131.654 72.0312 132.675 72.0312C136.3 72.0312 138.956 73.0521 140.644 75.0938C142.331 77.1146 143.175 80.5104 143.175 85.2812V101.281C143.175 102.406 142.665 103.365 141.644 104.156C140.623 104.927 139.623 105.312 138.644 105.312C137.915 105.312 137.55 104.865 137.55 103.969V91.625C137.55 89.6667 137.529 88.1875 137.488 87.1875C137.467 86.1875 137.383 84.9896 137.238 83.5938C137.113 82.1979 136.894 81.1667 136.581 80.5C136.269 79.8125 135.842 79.1146 135.3 78.4062C134.779 77.6979 134.092 77.2083 133.238 76.9375C132.383 76.6667 131.363 76.5312 130.175 76.5312C127.779 76.5312 124.498 78.125 120.331 81.3125C119.665 81.8333 119.144 82.0938 118.769 82.0938C118.352 82.0938 118.144 81.7396 118.144 81.0312V76.0625C118.144 74.9375 118.654 73.9896 119.675 73.2188C120.717 72.4271 121.717 72.0312 122.675 72.0312C123.404 72.0312 123.769 72.4792 123.769 73.375V74.1562C123.769 74.9062 123.935 75.2812 124.269 75.2812C124.56 75.2812 124.967 75.0833 125.488 74.6875Z" fill="black"/>
</g>

<g filter="url(#filter1_ddi_13_15)">
<path d="M251.325 72.0312C253.075 72.0312 254.648 72.2604 256.044 72.7188C257.44 73.1771 258.617 73.9167 259.575 74.9375C260.533 75.9375 261.263 77.2396 261.763 78.8438C262.283 80.4271 262.544 82.3438 262.544 84.5938V101.531C262.544 102.052 262.377 102.542 262.044 103C261.731 103.458 261.335 103.865 260.856 104.219C260.398 104.552 259.898 104.812 259.356 105C258.835 105.208 258.377 105.312 257.981 105.312C257.252 105.312 256.888 104.865 256.888 103.969V85.75C256.888 79.6042 254.45 76.5312 249.575 76.5312C246.742 76.5312 244.169 77.3125 241.856 78.875C240.94 79.4792 240.346 79.7812 240.075 79.7812C239.763 79.7812 239.606 79.6146 239.606 79.2812C239.606 78.6979 239.929 78.0104 240.575 77.2188C243.408 73.7604 246.992 72.0312 251.325 72.0312ZM254.513 103.25C253.638 104.042 252.554 104.688 251.263 105.188C249.971 105.708 248.731 105.969 247.544 105.969C244.773 105.969 242.648 105.24 241.169 103.781C239.71 102.302 238.981 100.49 238.981 98.3438C238.981 96.8021 239.513 95.625 240.575 94.8125C241.533 94.0625 242.367 93.6875 243.075 93.6875C243.304 93.6875 243.502 93.7708 243.669 93.9375C243.835 94.1042 243.919 94.3542 243.919 94.6875C243.919 97.0625 244.325 98.7917 245.138 99.875C245.95 100.938 247.398 101.469 249.481 101.469C250.106 101.469 250.867 101.365 251.763 101.156C252.658 100.927 253.419 100.625 254.044 100.25C254.419 100.021 254.7 99.9062 254.888 99.9062C255.179 99.9062 255.325 100.292 255.325 101.062C255.325 102.021 255.054 102.75 254.513 103.25ZM254.263 86.375C254.658 86.5833 254.929 86.8646 255.075 87.2188C255.221 87.5521 255.294 88.1875 255.294 89.125C255.294 89.9583 255.221 90.5625 255.075 90.9375C254.95 91.2917 254.71 91.4688 254.356 91.4688C254.127 91.4688 253.804 91.375 253.388 91.1875C251.429 90.3333 249.658 89.9062 248.075 89.9062C245.513 89.9062 243.075 90.8333 240.763 92.6875C240.033 93.2708 239.544 93.5625 239.294 93.5625C238.96 93.5625 238.794 93.375 238.794 93C238.794 92.4167 239.002 91.7812 239.419 91.0938C240.523 89.2396 241.971 87.8333 243.763 86.875C245.575 85.8958 247.585 85.4062 249.794 85.4062C251.481 85.4062 252.971 85.7292 254.263 86.375ZM273.431 103.969V60.9062C273.431 59.7812 273.942 58.8542 274.963 58.125C275.983 57.375 276.983 57 277.963 57C278.692 57 279.056 57.4479 279.056 58.3438V101.406C279.056 102.552 278.546 103.49 277.525 104.219C276.504 104.948 275.504 105.312 274.525 105.312C273.796 105.312 273.431 104.865 273.431 103.969ZM289.944 103.969V60.9062C289.944 59.7812 290.454 58.8542 291.475 58.125C292.496 57.375 293.496 57 294.475 57C295.204 57 295.569 57.4479 295.569 58.3438V101.406C295.569 102.552 295.058 103.49 294.038 104.219C293.017 104.948 292.017 105.312 291.038 105.312C290.308 105.312 289.944 104.865 289.944 103.969ZM318.863 72.0312C320.613 72.0312 322.185 72.2604 323.581 72.7188C324.977 73.1771 326.154 73.9167 327.113 74.9375C328.071 75.9375 328.8 77.2396 329.3 78.8438C329.821 80.4271 330.081 82.3438 330.081 84.5938V101.531C330.081 102.052 329.915 102.542 329.581 103C329.269 103.458 328.873 103.865 328.394 104.219C327.935 104.552 327.435 104.812 326.894 105C326.373 105.208 325.915 105.312 325.519 105.312C324.79 105.312 324.425 104.865 324.425 103.969V85.75C324.425 79.6042 321.988 76.5312 317.113 76.5312C314.279 76.5312 311.706 77.3125 309.394 78.875C308.477 79.4792 307.883 79.7812 307.613 79.7812C307.3 79.7812 307.144 79.6146 307.144 79.2812C307.144 78.6979 307.467 78.0104 308.113 77.2188C310.946 73.7604 314.529 72.0312 318.863 72.0312ZM322.05 103.25C321.175 104.042 320.092 104.688 318.8 105.188C317.508 105.708 316.269 105.969 315.081 105.969C312.31 105.969 310.185 105.24 308.706 103.781C307.248 102.302 306.519 100.49 306.519 98.3438C306.519 96.8021 307.05 95.625 308.113 94.8125C309.071 94.0625 309.904 93.6875 310.613 93.6875C310.842 93.6875 311.04 93.7708 311.206 93.9375C311.373 94.1042 311.456 94.3542 311.456 94.6875C311.456 97.0625 311.863 98.7917 312.675 99.875C313.488 100.938 314.935 101.469 317.019 101.469C317.644 101.469 318.404 101.365 319.3 101.156C320.196 100.927 320.956 100.625 321.581 100.25C321.956 100.021 322.238 99.9062 322.425 99.9062C322.717 99.9062 322.863 100.292 322.863 101.062C322.863 102.021 322.592 102.75 322.05 103.25ZM321.8 86.375C322.196 86.5833 322.467 86.8646 322.613 87.2188C322.758 87.5521 322.831 88.1875 322.831 89.125C322.831 89.9583 322.758 90.5625 322.613 90.9375C322.488 91.2917 322.248 91.4688 321.894 91.4688C321.665 91.4688 321.342 91.375 320.925 91.1875C318.967 90.3333 317.196 89.9062 315.613 89.9062C313.05 89.9062 310.613 90.8333 308.3 92.6875C307.571 93.2708 307.081 93.5625 306.831 93.5625C306.498 93.5625 306.331 93.375 306.331 93C306.331 92.4167 306.54 91.7812 306.956 91.0938C308.06 89.2396 309.508 87.8333 311.3 86.875C313.113 85.8958 315.123 85.4062 317.331 85.4062C319.019 85.4062 320.508 85.7292 321.8 86.375Z" fill="black"/>
</g>

<g filter="url(#filter2_ddi_13_15)">
<path class="flicker" d="M193.078 74.5898L187.849 97.3535C187.233 100.02 186.062 102.026 184.333 103.374C182.575 104.751 181.257 105.439 180.378 105.439C179.528 105.439 179.104 105 179.104 104.121C179.104 103.506 182.473 88.374 189.211 58.7256C189.475 57.5537 189.987 56.9678 190.749 56.9678C191.569 56.9678 192.302 58.3594 192.946 61.1426C193.62 63.9258 193.957 66.3721 193.957 68.4814C193.957 69.8584 193.664 71.8945 193.078 74.5898ZM231.486 45.3223L217.731 97.3535C217.146 100.02 215.944 102.026 214.128 103.374C212.282 104.751 210.832 105.439 209.777 105.439C209.016 105.439 208.635 105.029 208.635 104.209C208.635 103.389 208.884 102.1 209.382 100.342L222.565 49.2334C223.063 47.3584 224.133 45.7617 225.773 44.4434C227.443 43.125 228.996 42.4658 230.432 42.4658C231.311 42.4658 231.75 42.9053 231.75 43.7842C231.75 44.1943 231.662 44.707 231.486 45.3223ZM174.138 94.6729L163.635 49.2773C163.459 48.3984 163.371 47.8564 163.371 47.6514C163.371 46.2744 164.162 45.0732 165.744 44.0479C167.326 42.9932 168.688 42.4658 169.831 42.4658C170.329 42.4658 170.695 42.6123 170.93 42.9053C171.164 43.1689 171.369 43.6816 171.545 44.4434L179.587 79.0723C179.909 80.5078 180.07 82.0166 180.07 83.5986C180.07 86.8213 179.587 89.8242 178.62 92.6074C177.683 95.3613 176.76 96.7383 175.852 96.7383C175.002 96.7383 174.431 96.0498 174.138 94.6729ZM193.43 45.498C194.104 44.6484 194.997 43.9307 196.11 43.3447C197.253 42.7588 198.19 42.4658 198.923 42.4658C199.392 42.4658 199.758 42.627 200.021 42.9492C200.285 43.2422 200.52 43.7695 200.725 44.5312L209.558 80.874C209.909 82.4561 210.085 83.8623 210.085 85.0928C210.085 86.1768 209.792 87.9199 209.206 90.3223C208.649 92.6953 208.107 94.3799 207.58 95.376C207.053 96.3428 206.452 96.8262 205.778 96.8262C204.929 96.8262 204.328 96.1377 203.977 94.7607L192.814 49.7607C192.639 49.0869 192.551 48.457 192.551 47.8711C192.551 47.0508 192.844 46.2598 193.43 45.498Z" fill="black"/>
</g>

<g  filter="url(#filter3_i_13_15)">
<path class="flicker" d="M39.3203 50.5518H3.3291C2.06934 50.5518 1.43945 50.0977 1.43945 49.1895C1.43945 48.7793 1.73242 48.0322 2.31836 46.9482C2.9043 45.8643 3.59277 44.9707 4.38379 44.2676C5.05762 43.6523 6.1416 43.3447 7.63574 43.3447H43.627C44.8867 43.3447 45.5166 43.7988 45.5166 44.707C45.5166 45.1172 45.2236 45.8643 44.6377 46.9482C44.0518 48.0322 43.3633 48.9258 42.5723 49.6289C41.8984 50.2441 40.8145 50.5518 39.3203 50.5518ZM18.2705 103.55L18.2266 55.8252C18.2266 54.7705 18.5781 54.082 19.2812 53.7598C20.0137 53.4082 21.127 53.2324 22.6211 53.2324C24.2617 53.2324 25.4043 53.4082 26.0488 53.7598C26.7227 54.082 27.0596 54.7705 27.0596 55.8252V98.8916C27.0596 100.151 26.7666 101.133 26.1807 101.836C25.4189 102.744 24.3643 103.579 23.0166 104.341C21.6982 105.073 20.6289 105.439 19.8086 105.439C18.7832 105.439 18.2705 104.81 18.2705 103.55Z" fill="black"/>
</g>

<defs>
<filter id="filter0_ddi_13_15" x="49.6688" y="54.25" width="96.5062" height="56.0625" filterUnits="userSpaceOnUse" color-interpolation-filters="sRGB">
<feFlood flood-opacity="0" result="BackgroundImageFix"/>
<feColorMatrix in="SourceAlpha" type="matrix" values="0 0 0 0 0 0 0 0 0 0 0 0 0 0 0 0 0 0 127 0" result="hardAlpha"/>
<feOffset dx="1" dy="1"/>
<feGaussianBlur stdDeviation="1"/>
<feComposite in2="hardAlpha" operator="out"/>
<feColorMatrix type="matrix" values="0 0 0 0 0 0 0 0 0 0 0 0 0 0 0 0 0 0 0.25 0"/>
<feBlend mode="normal" in2="BackgroundImageFix" result="effect1_dropShadow_13_15"/>
<feColorMatrix in="SourceAlpha" type="matrix" values="0 0 0 0 0 0 0 0 0 0 0 0 0 0 0 0 0 0 127 0" result="hardAlpha"/>
<feOffset dx="-0.5" dy="-0.5"/>
<feGaussianBlur stdDeviation="0.5"/>
<feComposite in2="hardAlpha" operator="out"/>
<feColorMatrix type="matrix" values="0 0 0 0 0 0 0 0 0 0 0 0 0 0 0 0 0 0 0.25 0"/>
<feBlend mode="normal" in2="effect1_dropShadow_13_15" result="effect2_dropShadow_13_15"/>
<feBlend mode="normal" in="SourceGraphic" in2="effect2_dropShadow_13_15" result="shape"/>
<feColorMatrix in="SourceAlpha" type="matrix" values="0 0 0 0 0 0 0 0 0 0 0 0 0 0 0 0 0 0 127 0" result="hardAlpha"/>
<feOffset dx="2" dy="5"/>
<feGaussianBlur stdDeviation="5"/>
<feComposite in2="hardAlpha" operator="arithmetic" k2="-1" k3="1"/>
<feColorMatrix type="matrix" values="0 0 0 0 0 0 0 0 0 0 0 0 0 0 0 0 0 0 0.25 0"/>
<feBlend mode="normal" in2="shape" result="effect3_innerShadow_13_15"/>
</filter>
<filter id="filter1_ddi_13_15" x="237.294" y="55.5" width="95.7875" height="55.4688" filterUnits="userSpaceOnUse" color-interpolation-filters="sRGB">
<feFlood flood-opacity="0" result="BackgroundImageFix"/>
<feColorMatrix in="SourceAlpha" type="matrix" values="0 0 0 0 0 0 0 0 0 0 0 0 0 0 0 0 0 0 127 0" result="hardAlpha"/>
<feOffset dx="1" dy="1"/>
<feGaussianBlur stdDeviation="1"/>
<feComposite in2="hardAlpha" operator="out"/>
<feColorMatrix type="matrix" values="0 0 0 0 0 0 0 0 0 0 0 0 0 0 0 0 0 0 0.25 0"/>
<feBlend mode="normal" in2="BackgroundImageFix" result="effect1_dropShadow_13_15"/>
<feColorMatrix in="SourceAlpha" type="matrix" values="0 0 0 0 0 0 0 0 0 0 0 0 0 0 0 0 0 0 127 0" result="hardAlpha"/>
<feOffset dx="-0.5" dy="-0.5"/>
<feGaussianBlur stdDeviation="0.5"/>
<feComposite in2="hardAlpha" operator="out"/>
<feColorMatrix type="matrix" values="0 0 0 0 0 0 0 0 0 0 0 0 0 0 0 0 0 0 0.25 0"/>
<feBlend mode="normal" in2="effect1_dropShadow_13_15" result="effect2_dropShadow_13_15"/>
<feBlend mode="normal" in="SourceGraphic" in2="effect2_dropShadow_13_15" result="shape"/>
<feColorMatrix in="SourceAlpha" type="matrix" values="0 0 0 0 0 0 0 0 0 0 0 0 0 0 0 0 0 0 127 0" result="hardAlpha"/>
<feOffset dx="2" dy="5"/>
<feGaussianBlur stdDeviation="5"/>
<feComposite in2="hardAlpha" operator="arithmetic" k2="-1" k3="1"/>
<feColorMatrix type="matrix" values="0 0 0 0 0 0 0 0 0 0 0 0 0 0 0 0 0 0 0.25 0"/>
<feBlend mode="normal" in2="shape" result="effect3_innerShadow_13_15"/>
</filter>
<filter id="filter2_ddi_13_15" x="161.871" y="40.9658" width="72.8789" height="69.4736" filterUnits="userSpaceOnUse" color-interpolation-filters="sRGB">
<feFlood flood-opacity="0" result="BackgroundImageFix"/>
<feColorMatrix in="SourceAlpha" type="matrix" values="0 0 0 0 0 0 0 0 0 0 0 0 0 0 0 0 0 0 127 0" result="hardAlpha"/>
<feOffset dx="1" dy="1"/>
<feGaussianBlur stdDeviation="1"/>
<feComposite in2="hardAlpha" operator="out"/>
<feColorMatrix type="matrix" values="0 0 0 0 0 0 0 0 0 0 0 0 0 0 0 0 0 0 0.25 0"/>
<feBlend mode="normal" in2="BackgroundImageFix" result="effect1_dropShadow_13_15"/>
<feColorMatrix in="SourceAlpha" type="matrix" values="0 0 0 0 0 0 0 0 0 0 0 0 0 0 0 0 0 0 127 0" result="hardAlpha"/>
<feOffset dx="-0.5" dy="-0.5"/>
<feGaussianBlur stdDeviation="0.5"/>
<feComposite in2="hardAlpha" operator="out"/>
<feColorMatrix type="matrix" values="0 0 0 0 0 0 0 0 0 0 0 0 0 0 0 0 0 0 0.25 0"/>
<feBlend mode="normal" in2="effect1_dropShadow_13_15" result="effect2_dropShadow_13_15"/>
<feBlend mode="normal" in="SourceGraphic" in2="effect2_dropShadow_13_15" result="shape"/>
<feColorMatrix in="SourceAlpha" type="matrix" values="0 0 0 0 0 0 0 0 0 0 0 0 0 0 0 0 0 0 127 0" result="hardAlpha"/>
<feOffset dx="2" dy="5"/>
<feGaussianBlur stdDeviation="5"/>
<feComposite in2="hardAlpha" operator="arithmetic" k2="-1" k3="1"/>
<feColorMatrix type="matrix" values="0 0 0 0 0 0 0 0 0 0 0 0 0 0 0 0 0 0 0.25 0"/>
<feBlend mode="normal" in2="shape" result="effect3_innerShadow_13_15"/>
</filter>
<filter id="filter3_i_13_15" x="1.43945" y="43.3447" width="46.0771" height="67.0947" filterUnits="userSpaceOnUse" color-interpolation-filters="sRGB">
<feFlood flood-opacity="0" result="BackgroundImageFix"/>
<feBlend mode="normal" in="SourceGraphic" in2="BackgroundImageFix" result="shape"/>
<feColorMatrix in="SourceAlpha" type="matrix" values="0 0 0 0 0 0 0 0 0 0 0 0 0 0 0 0 0 0 127 0" result="hardAlpha"/>
<feOffset dx="2" dy="5"/>
<feGaussianBlur stdDeviation="5"/>
<feComposite in2="hardAlpha" operator="arithmetic" k2="-1" k3="1"/>
<feColorMatrix type="matrix" values="0 0 0 0 0 0 0 0 0 0 0 0 0 0 0 0 0 0 0.25 0"/>
<feBlend mode="normal" in2="shape" result="effect1_innerShadow_13_15"/>
</filter>
</defs>

 <style>

    .flicker {
      animation: flickerEffect 2.5s infinite;
    }

    @keyframes flickerEffect {
      0%, 18%, 22%, 63%, 64%, 100% {
        opacity: 1;
      }
      18.01%, 21.99%, 63.01%, 64.99% {
        opacity: 0;
      }
    }
  </style>
</svg>
