<svg width="278" height="78" viewBox="0 0 278 78" fill="none" xmlns="http://www.w3.org/2000/svg">
<path d="M6.136 15.216C4.42933 15.216 3.10667 14.7467 2.168 13.808C1.272 12.8267 0.824 11.6533 0.824 10.288C0.824 9.94666 0.866667 9.54133 0.952001 9.072C1.08 8.60266 1.22933 8.19733 1.4 7.856C1.95467 8.112 2.76533 8.304 3.832 8.432C4.94133 8.51733 6.22133 8.56 7.672 8.56C9.848 8.56 12.3013 8.47466 15.032 8.304C17.8053 8.09066 20.4507 7.87733 22.968 7.664C25.4853 7.45066 27.704 7.25866 29.624 7.088C31.544 6.87466 32.7813 6.768 33.336 6.768C34.9147 6.768 36.0453 7.36533 36.728 8.56C37.4533 9.712 37.9867 11.2693 38.328 13.232C37.2187 13.1467 36.1093 13.0827 35 13.04C33.9333 12.9547 33.016 12.912 32.248 12.912C30.8827 12.912 29.496 12.9547 28.088 13.04C26.7227 13.1253 25.336 13.2533 23.928 13.424C23.3307 14.6613 22.6693 16.1333 21.944 17.84C21.2187 19.504 20.4933 21.2533 19.768 23.088C19.0853 24.9227 18.424 26.7573 17.784 28.592C17.144 30.384 16.5893 32.0053 16.12 33.456C15.1813 36.272 14.3493 38.8747 13.624 41.264C12.9413 43.6533 12.3227 45.8933 11.768 47.984C11.256 50.032 10.808 51.9947 10.424 53.872C10.04 55.7493 9.69867 57.584 9.4 59.376C6.54133 58.9493 4.152 57.1573 2.232 54C2.57333 52.6773 2.97867 51.248 3.448 49.712C3.96 48.1333 4.536 46.3627 5.176 44.4C5.85867 42.3947 6.648 40.1333 7.544 37.616C8.44 35.0987 9.464 32.24 10.616 29.04C11.0427 27.8453 11.4907 26.608 11.96 25.328C12.4293 24.0053 12.8773 22.704 13.304 21.424C13.7733 20.144 14.1787 18.9067 14.52 17.712C14.904 16.5173 15.224 15.4293 15.48 14.448C13.688 14.6613 11.9813 14.8533 10.36 15.024C8.78133 15.152 7.37333 15.216 6.136 15.216ZM28.272 49.712C28.272 49.328 28.2933 48.8587 28.336 48.304C28.4213 47.7067 28.5493 46.9387 28.72 46C28.8907 45.0187 29.104 43.8453 29.36 42.48C29.6587 41.1147 30.0213 39.472 30.448 37.552C30.5333 37.1253 30.7253 36.4427 31.024 35.504C31.3227 34.5653 31.7067 33.584 32.176 32.56C32.688 31.4933 33.2853 30.4693 33.968 29.488C34.6933 28.5067 35.5467 27.7813 36.528 27.312C37.2533 27.4827 38.2133 27.9307 39.408 28.656C40.6027 29.3387 41.6267 30.2987 42.48 31.536C41.4987 32.6453 40.6667 33.7547 39.984 34.864C39.344 35.9733 38.7467 37.1253 38.192 38.32C37.68 39.5147 37.1893 40.752 36.72 42.032C36.2933 43.312 35.8027 44.656 35.248 46.064C34.7787 47.2587 34.352 48.496 33.968 49.776C33.584 51.0133 33.3707 52.1013 33.328 53.04C33.328 53.808 33.3067 54.3413 33.264 54.64C33.264 54.9813 33.1573 55.152 32.944 55.152C32.7733 55.152 32.432 55.0453 31.92 54.832C31.408 54.6187 30.8747 54.2987 30.32 53.872C29.808 53.4027 29.3387 52.8267 28.912 52.144C28.4853 51.4613 28.272 50.6507 28.272 49.712ZM40.496 21.936C40.496 21.68 40.56 21.296 40.688 20.784C40.4747 20.5707 40.2827 20.2507 40.112 19.824C39.984 19.3973 39.92 19.0133 39.92 18.672C39.92 18.288 39.9627 17.776 40.048 17.136C40.176 16.4533 40.3253 15.728 40.496 14.96C40.6667 14.192 40.88 13.4027 41.136 12.592C41.392 11.7387 41.648 10.9707 41.904 10.288C42.416 10.288 43.0347 10.4373 43.76 10.736C44.528 10.992 45.296 11.3547 46.064 11.824C46.832 12.2507 47.536 12.7413 48.176 13.296C48.816 13.808 49.3067 14.2987 49.648 14.768C49.1787 15.2373 48.56 15.8987 47.792 16.752C47.024 17.5627 46.2773 18.4373 45.552 19.376C44.8267 20.272 44.1653 21.1253 43.568 21.936C42.9707 22.7467 42.5867 23.3227 42.416 23.664C41.904 23.5787 41.456 23.3653 41.072 23.024C40.688 22.64 40.496 22.2773 40.496 21.936ZM44.6875 30C45.6688 29.7867 46.7568 29.5733 47.9515 29.36C49.1888 29.104 50.4902 28.8693 51.8555 28.656C52.8795 25.328 53.9675 22.32 55.1195 19.632C56.3142 16.9013 57.5942 14.576 58.9595 12.656C60.3675 10.736 61.8822 9.264 63.5035 8.24C65.1248 7.17333 66.8955 6.64 68.8155 6.64C70.4368 6.64 71.9942 7.06667 73.4875 7.92C74.9808 8.73066 76.3675 9.62666 77.6475 10.608C78.8848 9.02933 80.2075 7.83466 81.6155 7.024C83.0235 6.17067 84.5382 5.744 86.1595 5.744C86.9275 5.744 87.7808 5.95733 88.7195 6.384C89.7008 6.81067 90.6395 7.28 91.5355 7.792C92.4315 8.26133 93.2635 8.70933 94.0315 9.136C94.7995 9.56266 95.3755 9.776 95.7595 9.776C96.2715 9.47733 96.9755 9.22133 97.8715 9.008C98.8102 8.752 99.5995 8.624 100.24 8.624C100.752 8.624 101.413 8.90133 102.224 9.456C101.84 10.0533 101.456 10.864 101.072 11.888C100.688 12.912 100.389 13.9147 100.176 14.896C99.1088 18.0533 97.9782 20.1013 96.7835 21.04C96.5702 21.04 96.3782 20.912 96.2075 20.656C96.0795 20.3573 96.0155 19.8667 96.0155 19.184C96.0155 18.7147 95.9088 18.288 95.6955 17.904C95.4822 17.52 95.2262 17.136 94.9275 16.752C94.6715 16.368 94.4368 15.984 94.2235 15.6C94.0102 15.216 93.9035 14.8107 93.9035 14.384C93.9035 14.128 93.9248 13.8293 93.9675 13.488C94.0102 13.104 94.0955 12.4853 94.2235 11.632C92.6875 10.608 91.2795 10.096 89.9995 10.096C88.6342 10.096 87.3968 10.544 86.2875 11.44C85.1782 12.336 84.1542 13.5307 83.2155 15.024C82.2768 16.4747 81.4022 18.16 80.5915 20.08C79.8235 22 79.1195 23.9627 78.4795 25.968C79.7168 25.9253 80.9328 25.904 82.1275 25.904C83.3648 25.8613 84.6235 25.84 85.9035 25.84C87.6102 25.84 89.3808 25.8827 91.2155 25.968C93.0502 26.0533 94.9915 26.224 97.0395 26.48C97.4662 26.9493 97.7862 27.3973 97.9995 27.824C97.0182 29.104 96.0795 30.5547 95.1835 32.176C94.2875 33.7973 93.4555 35.4827 92.6875 37.232C91.9195 38.9387 91.2155 40.6453 90.5755 42.352C89.9782 44.016 89.4448 45.5733 88.9755 47.024C88.5488 48.432 88.1862 49.6693 87.8875 50.736C87.6315 51.8027 87.4822 52.5707 87.4395 53.04C87.3542 53.808 87.3115 54.3413 87.3115 54.64C87.3542 54.9813 87.2688 55.152 87.0555 55.152C86.8848 55.152 86.5435 55.0453 86.0315 54.832C85.5195 54.6187 84.9862 54.2987 84.4315 53.872C83.9195 53.4027 83.4502 52.8267 83.0235 52.144C82.5968 51.4613 82.3835 50.6507 82.3835 49.712C82.3835 48.5173 82.5542 47.024 82.8955 45.232C83.2368 43.3973 83.6848 41.52 84.2395 39.6C84.7942 37.68 85.4342 35.8453 86.1595 34.096C86.8848 32.304 87.6315 30.8533 88.3995 29.744C86.4795 29.616 84.6022 29.552 82.7675 29.552C80.9755 29.5093 79.1835 29.488 77.3915 29.488C75.3435 36.2293 73.4875 42.096 71.8235 47.088C70.2022 52.08 68.6662 56.3467 67.2155 59.888C65.8075 63.4293 64.4422 66.3307 63.1195 68.592C61.7968 70.896 60.4528 72.7093 59.0875 74.032C57.7648 75.3547 56.3568 76.2507 54.8635 76.72C53.4128 77.232 51.8128 77.488 50.0635 77.488C48.4422 77.488 46.8848 77.1467 45.3915 76.464C43.9408 75.824 42.6608 74.8853 41.5515 73.648C40.1435 75.0987 38.6928 76.1013 37.1995 76.656C35.7062 77.2107 34.0422 77.488 32.2075 77.488C29.1782 77.488 26.5968 76.464 24.4635 74.416C24.4635 74.1173 24.5488 73.7973 24.7195 73.456C24.8902 73.1147 25.0822 72.88 25.2955 72.752C25.8928 73.4773 26.6822 74.032 27.6635 74.416C28.6448 74.8427 29.6688 75.056 30.7355 75.056C31.8448 75.056 32.8688 74.8 33.8075 74.288C34.7035 73.8187 35.5995 73.008 36.4955 71.856C37.3488 70.704 38.2022 69.1893 39.0555 67.312C39.9515 65.4347 40.9115 63.1093 41.9355 60.336C43.4715 56.1973 44.9648 51.76 46.4155 47.024C47.8662 42.2453 49.4448 36.9333 51.1515 31.088C50.0422 31.2587 48.9968 31.4293 48.0155 31.6C47.0342 31.7707 46.1168 31.9627 45.2635 32.176C45.0928 32.0053 44.9435 31.664 44.8155 31.152C44.7302 30.64 44.6875 30.256 44.6875 30ZM69.3915 29.616C67.5995 29.6587 65.8715 29.7227 64.2075 29.808C62.5435 29.8933 60.9222 30 59.3435 30.128C57.4662 36.144 55.7595 41.456 54.2235 46.064C52.7302 50.672 51.3008 54.6827 49.9355 58.096C48.6128 61.5093 47.3542 64.3893 46.1595 66.736C44.9648 69.0827 43.7702 70.9813 42.5755 72.432C43.1728 73.1573 43.9195 73.776 44.8155 74.288C45.7115 74.8 46.9702 75.056 48.5915 75.056C49.7008 75.056 50.7035 74.8 51.5995 74.288C52.5382 73.8187 53.4342 73.008 54.2875 71.856C55.1835 70.704 56.0582 69.1893 56.9115 67.312C57.8075 65.4347 58.7675 63.1093 59.7915 60.336C61.2848 56.1973 62.8208 51.504 64.3995 46.256C66.0208 41.008 67.6848 35.4613 69.3915 29.616ZM60.2395 27.44C61.8182 27.2267 63.4395 27.0347 65.1035 26.864C66.8102 26.6933 68.5595 26.544 70.3515 26.416C71.2048 23.6 72.1222 21.04 73.1035 18.736C74.0848 16.3893 75.1302 14.3413 76.2395 12.592C75.2582 11.9947 74.3622 11.5893 73.5515 11.376C72.7408 11.12 72.1648 10.992 71.8235 10.992C70.6715 10.992 69.6048 11.3547 68.6235 12.08C67.6848 12.7627 66.7675 13.808 65.8715 15.216C64.9755 16.5813 64.0582 18.288 63.1195 20.336C62.2235 22.384 61.2635 24.752 60.2395 27.44ZM108.201 22.96C109.31 23.3013 110.356 24.0693 111.337 25.264C112.318 26.416 113.044 27.696 113.513 29.104C113.044 30.256 112.318 31.6427 111.337 33.264C110.356 34.8853 109.374 36.5493 108.393 38.256C107.412 39.92 106.516 41.52 105.705 43.056C104.937 44.5493 104.489 45.7867 104.361 46.768C105.044 46.0427 105.79 45.2107 106.601 44.272C107.454 43.2907 108.265 42.3307 109.033 41.392C109.844 40.4107 110.59 39.536 111.273 38.768C111.956 37.9573 112.489 37.36 112.873 36.976C113.684 36.1227 114.644 35.1413 115.753 34.032C116.862 32.88 118.014 31.8133 119.209 30.832C120.446 29.808 121.684 28.9547 122.921 28.272C124.158 27.5467 125.289 27.184 126.313 27.184C127.422 27.184 128.34 27.568 129.065 28.336C129.833 29.0613 130.43 29.8293 130.857 30.64C130.857 30.7253 130.686 30.8533 130.345 31.024C130.046 31.152 129.598 31.5573 129.001 32.24C128.404 33.008 127.721 34.0747 126.953 35.44C126.228 36.7627 125.502 38.2133 124.777 39.792C124.094 41.328 123.518 42.9067 123.049 44.528C122.58 46.1493 122.345 47.6213 122.345 48.944C122.345 50.0107 122.473 50.6933 122.729 50.992C123.028 51.2907 123.433 51.44 123.945 51.44C124.414 51.44 124.905 51.3333 125.417 51.12C125.929 50.9067 126.334 50.8 126.633 50.8C126.804 50.8853 126.932 51.0773 127.017 51.376C127.145 51.632 127.209 51.8667 127.209 52.08C126.868 52.3787 126.462 52.6773 125.993 52.976C125.524 53.2747 125.033 53.552 124.521 53.808C124.009 54.064 123.497 54.2773 122.985 54.448C122.516 54.6187 122.089 54.704 121.705 54.704C120.468 54.704 119.444 54.512 118.633 54.128C117.865 53.7867 117.246 53.3173 116.777 52.72C116.35 52.1227 116.052 51.4187 115.881 50.608C115.71 49.7547 115.625 48.8587 115.625 47.92C115.625 47.408 115.668 46.832 115.753 46.192C115.838 45.552 116.009 44.8053 116.265 43.952C116.521 43.056 116.884 42.0107 117.353 40.816C117.822 39.5787 118.42 38.1067 119.145 36.4C119.06 36.4 118.484 36.6987 117.417 37.296C116.35 37.8933 115.198 38.8107 113.961 40.048C111.956 41.968 110.142 43.8667 108.521 45.744C106.942 47.6213 105.321 49.712 103.657 52.016C102.718 53.3387 101.886 54.448 101.161 55.344C100.478 56.2827 99.881 56.9013 99.369 57.2C98.473 56.688 97.8117 55.9627 97.385 55.024C96.9583 54.128 96.6383 53.1893 96.425 52.208C96.425 51.3973 96.5317 50.3733 96.745 49.136C97.001 47.8987 97.321 46.5333 97.705 45.04C98.1317 43.504 98.6437 41.904 99.241 40.24C99.8383 38.576 100.5 36.912 101.225 35.248C102.846 31.4933 104.318 28.5493 105.641 26.416C107.006 24.2827 107.86 23.1307 108.201 22.96ZM156.094 55.984C155.88 54.2347 155.71 52.336 155.582 50.288C155.496 48.1973 155.454 46.256 155.454 44.464C155.454 41.6053 155.539 38.8747 155.71 36.272C155.923 33.6267 156.158 30.8747 156.414 28.016C156.712 25.1147 157.032 21.9787 157.374 18.608C157.715 15.1947 158.014 11.2693 158.27 6.832C158.824 6.832 159.614 7.00266 160.638 7.344C161.704 7.64266 162.771 8.00533 163.838 8.432C164.904 8.85867 165.843 9.30666 166.654 9.776C167.464 10.2027 167.934 10.5653 168.062 10.864C167.336 12.528 166.675 14.7253 166.078 17.456C165.523 20.144 165.054 23.088 164.67 26.288C164.286 29.488 163.987 32.7733 163.774 36.144C163.56 39.5147 163.454 42.672 163.454 45.616C163.454 46.9813 163.475 48.3253 163.518 49.648C163.56 50.9707 163.624 52.1867 163.71 53.296C164.606 51.9733 165.63 50.096 166.782 47.664C167.976 45.1893 169.192 42.4373 170.43 39.408C171.71 36.3787 172.968 33.2213 174.206 29.936C175.486 26.608 176.659 23.4507 177.726 20.464C178.792 17.4347 179.688 14.7253 180.414 12.336C181.182 9.904 181.715 8.06933 182.014 6.832C182.568 6.832 183.379 7.00266 184.446 7.344C185.555 7.64266 186.622 8.00533 187.646 8.432C188.712 8.85867 189.651 9.30666 190.462 9.776C191.272 10.2027 191.72 10.5653 191.806 10.864C191.08 12.528 190.419 14.7253 189.822 17.456C189.267 20.144 188.798 23.088 188.414 26.288C188.03 29.488 187.731 32.7733 187.518 36.144C187.304 39.5147 187.198 42.672 187.198 45.616C187.198 46.8533 187.198 48.0907 187.198 49.328C187.24 50.5227 187.304 51.6107 187.39 52.592C188.755 49.0507 190.163 45.552 191.614 42.096C193.107 38.5973 194.579 35.2693 196.03 32.112C197.48 28.912 198.888 25.9467 200.254 23.216C201.619 20.4427 202.878 17.9893 204.03 15.856C205.182 13.68 206.184 11.888 207.038 10.48C207.891 9.072 208.552 8.13333 209.021 7.664C210.003 7.792 211.006 8.15467 212.03 8.752C213.096 9.30667 214.035 10.032 214.846 10.928C213.608 11.9093 212.2 13.5307 210.622 15.792C209.043 18.0107 207.422 20.592 205.757 23.536C204.094 26.48 202.408 29.616 200.702 32.944C199.038 36.272 197.48 39.5147 196.03 42.672C194.579 45.8293 193.278 48.7733 192.126 51.504C191.016 54.2347 190.163 56.432 189.566 58.096C188.456 58.608 187.368 58.864 186.302 58.864C184.936 58.6933 183.635 58.352 182.398 57.84C181.203 57.328 180.35 56.7093 179.838 55.984C179.71 55.3013 179.603 54.512 179.518 53.616C179.432 52.6773 179.368 51.76 179.326 50.864C179.283 49.968 179.24 49.1147 179.198 48.304C179.198 47.4507 179.198 46.7253 179.198 46.128C179.198 42.3307 179.347 38.4693 179.646 34.544C179.944 30.576 180.307 26.3307 180.734 21.808C179.752 24.7093 178.664 27.824 177.47 31.152C176.275 34.48 175.016 37.7867 173.694 41.072C172.414 44.3147 171.091 47.4293 169.726 50.416C168.403 53.36 167.102 55.92 165.822 58.096C164.712 58.608 163.624 58.864 162.558 58.864C161.192 58.6933 159.891 58.352 158.654 57.84C157.459 57.328 156.606 56.7093 156.094 55.984ZM227.726 28.144C228.152 28.144 228.643 28.2293 229.198 28.4C229.795 28.528 230.328 28.72 230.798 28.976C231.267 29.1893 231.651 29.424 231.95 29.68C232.291 29.936 232.462 30.1707 232.462 30.384C231.608 32.176 230.819 33.9893 230.094 35.824C229.368 37.616 228.75 39.344 228.238 41.008C227.726 42.672 227.32 44.2293 227.022 45.68C226.766 47.1307 226.638 48.3893 226.638 49.456C226.638 50.6507 226.766 51.6533 227.022 52.464C227.278 53.232 227.704 53.7867 228.302 54.128C227.79 54.4693 227.128 54.7467 226.318 54.96C225.507 55.1733 224.782 55.28 224.142 55.28C221.838 55.28 220.686 53.7013 220.686 50.544C220.686 48.112 221.496 44.784 223.118 40.56C222.264 42.5227 221.283 44.3787 220.174 46.128C219.064 47.8347 217.934 49.3493 216.782 50.672C215.63 51.9947 214.456 53.0827 213.262 53.936C212.11 54.7467 211.043 55.2373 210.062 55.408C208.483 55.3227 207.203 54.576 206.222 53.168C205.24 51.7173 204.75 49.8827 204.75 47.664C204.75 45.2747 205.262 42.7573 206.286 40.112C207.31 37.4667 208.611 35.0133 210.19 32.752C211.811 30.4907 213.56 28.6133 215.438 27.12C217.315 25.584 219.128 24.7733 220.878 24.688C221.304 24.816 221.774 25.072 222.286 25.456C222.84 25.84 223.352 26.288 223.822 26.8C224.334 27.312 224.76 27.8453 225.102 28.4C225.443 28.912 225.635 29.36 225.678 29.744C223.971 30 222.2 30.832 220.366 32.24C218.574 33.648 216.931 35.3547 215.438 37.36C213.987 39.3227 212.792 41.4347 211.854 43.696C210.915 45.9573 210.446 48.0693 210.446 50.032C210.446 50.8427 210.744 51.3547 211.342 51.568C212.579 51.312 214.008 50.2667 215.63 48.432C217.251 46.5547 219.214 43.6747 221.518 39.792C221.944 39.024 222.414 38.1707 222.926 37.232C223.48 36.2933 224.035 35.312 224.59 34.288C225.144 33.264 225.678 32.24 226.19 31.216C226.744 30.1493 227.256 29.1253 227.726 28.144ZM235.644 49.904C235.644 48.0267 236.092 45.4027 236.988 42.032C237.884 38.6187 239.143 34.6507 240.764 30.128C243.409 22.9173 245.884 16.9227 248.188 12.144C250.535 7.32266 252.817 3.568 255.036 0.879997C255.548 0.965329 256.167 1.17866 256.892 1.52C257.66 1.86133 258.407 2.24533 259.132 2.672C259.857 3.056 260.497 3.46133 261.052 3.888C261.649 4.31466 262.033 4.656 262.204 4.912C258.876 8.83733 255.953 13.0613 253.436 17.584C250.919 22.1067 248.615 27.2907 246.524 33.136C244.732 38.1707 243.367 42.7147 242.428 46.768C241.489 50.7787 241.02 54.128 241.02 56.816C241.02 57.5413 241.02 57.9893 241.02 58.16C241.02 58.3307 241.041 58.5013 241.084 58.672C240.487 58.5867 239.975 58.4373 239.548 58.224C239.121 58.0107 238.844 57.7547 238.716 57.456C238.631 57.2427 238.396 56.9227 238.012 56.496C237.628 56.112 237.287 55.8133 236.988 55.6C236.604 55.344 236.284 54.6827 236.028 53.616C235.772 52.5067 235.644 51.2693 235.644 49.904ZM272.663 28.144C273.09 28.144 273.58 28.2293 274.135 28.4C274.732 28.528 275.266 28.72 275.735 28.976C276.204 29.1893 276.588 29.424 276.887 29.68C277.228 29.936 277.399 30.1707 277.399 30.384C276.546 32.176 275.756 33.9893 275.031 35.824C274.306 37.616 273.687 39.344 273.175 41.008C272.663 42.672 272.258 44.2293 271.959 45.68C271.703 47.1307 271.575 48.3893 271.575 49.456C271.575 50.6507 271.703 51.6533 271.959 52.464C272.215 53.232 272.642 53.7867 273.239 54.128C272.727 54.4693 272.066 54.7467 271.255 54.96C270.444 55.1733 269.719 55.28 269.079 55.28C266.775 55.28 265.623 53.7013 265.623 50.544C265.623 48.112 266.434 44.784 268.055 40.56C267.202 42.5227 266.22 44.3787 265.111 46.128C264.002 47.8347 262.871 49.3493 261.719 50.672C260.567 51.9947 259.394 53.0827 258.199 53.936C257.047 54.7467 255.98 55.2373 254.999 55.408C253.42 55.3227 252.14 54.576 251.159 53.168C250.178 51.7173 249.687 49.8827 249.687 47.664C249.687 45.2747 250.199 42.7573 251.223 40.112C252.247 37.4667 253.548 35.0133 255.127 32.752C256.748 30.4907 258.498 28.6133 260.375 27.12C262.252 25.584 264.066 24.7733 265.815 24.688C266.242 24.816 266.711 25.072 267.223 25.456C267.778 25.84 268.29 26.288 268.759 26.8C269.271 27.312 269.698 27.8453 270.039 28.4C270.38 28.912 270.572 29.36 270.615 29.744C268.908 30 267.138 30.832 265.303 32.24C263.511 33.648 261.868 35.3547 260.375 37.36C258.924 39.3227 257.73 41.4347 256.791 43.696C255.852 45.9573 255.383 48.0693 255.383 50.032C255.383 50.8427 255.682 51.3547 256.279 51.568C257.516 51.312 258.946 50.2667 260.567 48.432C262.188 46.5547 264.151 43.6747 266.455 39.792C266.882 39.024 267.351 38.1707 267.863 37.232C268.418 36.2933 268.972 35.312 269.527 34.288C270.082 33.264 270.615 32.24 271.127 31.216C271.682 30.1493 272.194 29.1253 272.663 28.144Z" fill="black"/>
</svg>
