<svg width="73" height="48" viewBox="0 0 73 48" fill="none" xmlns="http://www.w3.org/2000/svg">
<path d="M0.75 1.375C3.54167 1.70833 5.95833 1.95833 8 2.125C10.0417 2.25 11.7292 2.35417 13.0625 2.4375C14.6042 2.52083 15.8958 2.54167 16.9375 2.5C18.0208 2.45833 19.5 2.35417 21.375 2.1875C22.9583 2.0625 25.0417 1.89583 27.625 1.6875C30.2083 1.4375 33.4375 1.10417 37.3125 0.6875C37.3542 1.64583 37.375 2.58333 37.375 3.5C37.4167 4.375 37.4583 5.14583 37.5 5.8125C37.5417 6.60417 37.5625 7.33333 37.5625 8C37.5625 8.70833 37.5208 9.60417 37.4375 10.6875C37.3542 11.6042 37.2083 12.7708 37 14.1875C36.8333 15.5625 36.5625 17.2083 36.1875 19.125C35.6042 16.875 35.0417 15.0625 34.5 13.6875C33.9583 12.2708 33.4583 11.1458 33 10.3125C32.5 9.35417 32 8.625 31.5 8.125C30.9583 7.75 30.3125 7.4375 29.5625 7.1875C28.8958 6.97917 28.0417 6.8125 27 6.6875C26 6.5625 24.8125 6.58333 23.4375 6.75C23.2292 12.25 23.0833 16.7083 23 20.125C22.9167 23.5417 22.8542 26.2083 22.8125 28.125C22.7708 30.4167 22.75 32.0625 22.75 33.0625C22.7917 34.4792 23.0208 35.875 23.4375 37.25C23.7708 38.4167 24.3125 39.625 25.0625 40.875C25.8125 42.125 26.8958 43.2292 28.3125 44.1875H20.6875C19.9792 44.1875 19.1042 44.2292 18.0625 44.3125C17.1875 44.3958 16.0625 44.4792 14.6875 44.5625C13.3542 44.6458 11.7917 44.7917 10 45C10.625 43.9167 11.125 42.9375 11.5 42.0625C11.875 41.1875 12.1667 40.4375 12.375 39.8125C12.625 39.0625 12.8125 38.3958 12.9375 37.8125C12.9792 36.9792 13.0833 35.2917 13.25 32.75C13.2917 31.7083 13.3333 30.4167 13.375 28.875C13.4583 27.3333 13.5417 25.5 13.625 23.375C13.75 21.25 13.8542 18.8125 13.9375 16.0625C14.0625 13.2708 14.1875 10.125 14.3125 6.625C13.5625 6.41667 12.8542 6.4375 12.1875 6.6875C11.5208 6.89583 10.9375 7.16667 10.4375 7.5C9.85417 7.91667 9.29167 8.41667 8.75 9C8.20833 9.70833 7.60417 10.625 6.9375 11.75C6.35417 12.7083 5.6875 13.9792 4.9375 15.5625C4.1875 17.1042 3.33333 19.0208 2.375 21.3125C2.16667 18.8958 2.02083 16.9167 1.9375 15.375C1.85417 13.7917 1.79167 12.5625 1.75 11.6875C1.70833 10.6458 1.6875 9.875 1.6875 9.375C1.6875 8.91667 1.64583 8.3125 1.5625 7.5625C1.47917 6.9375 1.375 6.125 1.25 5.125C1.125 4.08333 0.958333 2.83333 0.75 1.375ZM36.9375 3.875C39.4375 4.08333 41.625 4.20833 43.5 4.25C45.4167 4.29167 47.0417 4.3125 48.375 4.3125C49.9167 4.3125 51.25 4.27083 52.375 4.1875C53.5417 4.0625 55.0625 3.89583 56.9375 3.6875C58.5208 3.47917 60.5625 3.20833 63.0625 2.875C65.5625 2.5 68.6042 2.02083 72.1875 1.4375C71.7292 2.14583 71.3333 2.89583 71 3.6875C70.7083 4.4375 70.4583 5.125 70.25 5.75C70.0417 6.5 69.8542 7.22917 69.6875 7.9375C69.5625 8.72917 69.4167 9.70833 69.25 10.875C69.0833 11.875 68.875 13.1458 68.625 14.6875C68.4167 16.1875 68.1458 17.9792 67.8125 20.0625C66.5625 16.8125 65.2917 14.3125 64 12.5625C62.75 10.8125 61.5833 9.52083 60.5 8.6875C59.25 7.72917 58.0625 7.1875 56.9375 7.0625C55.3125 7.0625 53.9792 7.375 52.9375 8C51.8958 8.625 51.0417 9.4375 50.375 10.4375C49.75 11.3958 49.2708 12.4583 48.9375 13.625C48.6042 14.75 48.375 15.8542 48.25 16.9375C48.125 17.9792 48.0417 18.9167 48 19.75C47.9583 20.5417 47.9167 21.0833 47.875 21.375C49.3333 21.2917 50.5625 21.1875 51.5625 21.0625C52.5625 20.9375 53.3542 20.8125 53.9375 20.6875C54.6458 20.5208 55.2083 20.3542 55.625 20.1875C56.25 19.8542 56.875 19.4583 57.5 19C58.0417 18.5833 58.6042 18.0833 59.1875 17.5C59.8125 16.9167 60.3542 16.2083 60.8125 15.375C60.5625 16.875 60.3333 18.125 60.125 19.125C59.9583 20.125 59.8125 20.9167 59.6875 21.5C59.5208 22.2083 59.4167 22.75 59.375 23.125C59.2917 23.5 59.1875 24.0208 59.0625 24.6875C58.9375 25.2708 58.7917 26.0208 58.625 26.9375C58.4583 27.8542 58.2708 29 58.0625 30.375C57.5625 29.5 57.0417 28.7917 56.5 28.25C55.9583 27.6667 55.4583 27.2083 55 26.875C54.4583 26.5 53.9375 26.2083 53.4375 26C52.8958 25.8333 52.3125 25.6667 51.6875 25.5C51.1458 25.375 50.5 25.25 49.75 25.125C49.0417 24.9583 48.2708 24.8125 47.4375 24.6875C47.5208 26.9375 47.6458 28.875 47.8125 30.5C47.9792 32.0833 48.125 33.4167 48.25 34.5C48.4167 35.75 48.5833 36.7917 48.75 37.625C48.9583 38.4583 49.2917 39.3542 49.75 40.3125C50.125 41.1458 50.6458 42.1042 51.3125 43.1875C52.0208 44.2292 52.9167 45.3542 54 46.5625C53.1667 46.3542 52.2917 46.2083 51.375 46.125C50.4583 46.0417 49.6458 45.9792 48.9375 45.9375C48.0625 45.8958 47.2292 45.8958 46.4375 45.9375C45.6042 45.9792 44.6875 46.0625 43.6875 46.1875C42.8542 46.2708 41.8958 46.3958 40.8125 46.5625C39.7292 46.7292 38.5833 46.9167 37.375 47.125C38.0833 46.4167 38.6667 45.7083 39.125 45C39.5833 44.2917 39.9167 43.6667 40.125 43.125C40.375 42.5 40.5417 41.8958 40.625 41.3125C40.6667 40.8125 40.6875 39.7292 40.6875 38.0625C40.6875 36.3542 40.6667 34.375 40.625 32.125C40.5833 29.8333 40.5208 27.4167 40.4375 24.875C40.3542 22.3333 40.2708 19.9583 40.1875 17.75C40.1042 15.5 40 13.5833 39.875 12C39.7917 10.4167 39.6875 9.45833 39.5625 9.125C39.3958 8.70833 39.2083 8.22917 39 7.6875C38.6667 6.8125 37.9792 5.54167 36.9375 3.875Z" fill="white"/>
</svg>
