<svg width="119" height="74" viewBox="0 0 119 74" fill="none" xmlns="http://www.w3.org/2000/svg">
<g filter="url(#filter0_d_5_4)">
<path d="M16.136 15.216C14.4293 15.216 13.1067 14.7467 12.168 13.808C11.272 12.8267 10.824 11.6533 10.824 10.288C10.824 9.94666 10.8667 9.54133 10.952 9.072C11.08 8.60266 11.2293 8.19733 11.4 7.856C11.9547 8.112 12.7653 8.304 13.832 8.432C14.9413 8.51733 16.2213 8.56 17.672 8.56C19.848 8.56 22.3013 8.47466 25.032 8.304C27.8053 8.09066 30.4507 7.87733 32.968 7.664C35.4853 7.45066 37.704 7.25866 39.624 7.088C41.544 6.87466 42.7813 6.768 43.336 6.768C44.9147 6.768 46.0453 7.36533 46.728 8.56C47.4533 9.712 47.9867 11.2693 48.328 13.232C47.2187 13.1467 46.1093 13.0827 45 13.04C43.9333 12.9547 43.016 12.912 42.248 12.912C40.8827 12.912 39.496 12.9547 38.088 13.04C36.7227 13.1253 35.336 13.2533 33.928 13.424C33.3307 14.6613 32.6693 16.1333 31.944 17.84C31.2187 19.504 30.4933 21.2533 29.768 23.088C29.0853 24.9227 28.424 26.7573 27.784 28.592C27.144 30.384 26.5893 32.0053 26.12 33.456C25.1813 36.272 24.3493 38.8747 23.624 41.264C22.9413 43.6533 22.3227 45.8933 21.768 47.984C21.256 50.032 20.808 51.9947 20.424 53.872C20.04 55.7493 19.6987 57.584 19.4 59.376C16.5413 58.9493 14.152 57.1573 12.232 54C12.5733 52.6773 12.9787 51.248 13.448 49.712C13.96 48.1333 14.536 46.3627 15.176 44.4C15.8587 42.3947 16.648 40.1333 17.544 37.616C18.44 35.0987 19.464 32.24 20.616 29.04C21.0427 27.8453 21.4907 26.608 21.96 25.328C22.4293 24.0053 22.8773 22.704 23.304 21.424C23.7733 20.144 24.1787 18.9067 24.52 17.712C24.904 16.5173 25.224 15.4293 25.48 14.448C23.688 14.6613 21.9813 14.8533 20.36 15.024C18.7813 15.152 17.3733 15.216 16.136 15.216ZM49.281 55.984C49.0677 54.2347 48.897 52.336 48.769 50.288C48.6837 48.1973 48.641 46.256 48.641 44.464C48.641 41.6053 48.7263 38.8747 48.897 36.272C49.1103 33.6267 49.345 30.8747 49.601 28.016C49.8997 25.1147 50.2197 21.9787 50.561 18.608C50.9023 15.1947 51.201 11.2693 51.457 6.832C52.0117 6.832 52.801 7.00266 53.825 7.344C54.8917 7.64266 55.9583 8.00533 57.025 8.432C58.0917 8.85867 59.0303 9.30666 59.841 9.776C60.6517 10.2027 61.121 10.5653 61.249 10.864C60.5237 12.528 59.8623 14.7253 59.265 17.456C58.7103 20.144 58.241 23.088 57.857 26.288C57.473 29.488 57.1743 32.7733 56.961 36.144C56.7477 39.5147 56.641 42.672 56.641 45.616C56.641 46.9813 56.6623 48.3253 56.705 49.648C56.7477 50.9707 56.8117 52.1867 56.897 53.296C57.793 51.9733 58.817 50.096 59.969 47.664C61.1637 45.1893 62.3797 42.4373 63.617 39.408C64.897 36.3787 66.1557 33.2213 67.393 29.936C68.673 26.608 69.8463 23.4507 70.913 20.464C71.9797 17.4347 72.8757 14.7253 73.601 12.336C74.369 9.904 74.9023 8.06933 75.201 6.832C75.7557 6.832 76.5663 7.00266 77.633 7.344C78.7423 7.64266 79.809 8.00533 80.833 8.432C81.8997 8.85867 82.8383 9.30666 83.649 9.776C84.4597 10.2027 84.9077 10.5653 84.993 10.864C84.2677 12.528 83.6063 14.7253 83.009 17.456C82.4543 20.144 81.985 23.088 81.601 26.288C81.217 29.488 80.9183 32.7733 80.705 36.144C80.4917 39.5147 80.385 42.672 80.385 45.616C80.385 46.8533 80.385 48.0907 80.385 49.328C80.4277 50.5227 80.4917 51.6107 80.577 52.592C81.9423 49.0507 83.3503 45.552 84.801 42.096C86.2943 38.5973 87.7663 35.2693 89.217 32.112C90.6677 28.912 92.0757 25.9467 93.441 23.216C94.8063 20.4427 96.065 17.9893 97.217 15.856C98.369 13.68 99.3717 11.888 100.225 10.48C101.078 9.072 101.74 8.13333 102.209 7.664C103.19 7.792 104.193 8.15467 105.217 8.752C106.284 9.30667 107.222 10.032 108.033 10.928C106.796 11.9093 105.388 13.5307 103.809 15.792C102.23 18.0107 100.609 20.592 98.945 23.536C97.281 26.48 95.5957 29.616 93.889 32.944C92.225 36.272 90.6677 39.5147 89.217 42.672C87.7663 45.8293 86.465 48.7733 85.313 51.504C84.2037 54.2347 83.3503 56.432 82.753 58.096C81.6437 58.608 80.5557 58.864 79.489 58.864C78.1237 58.6933 76.8223 58.352 75.585 57.84C74.3903 57.328 73.537 56.7093 73.025 55.984C72.897 55.3013 72.7903 54.512 72.705 53.616C72.6197 52.6773 72.5557 51.76 72.513 50.864C72.4703 49.968 72.4277 49.1147 72.385 48.304C72.385 47.4507 72.385 46.7253 72.385 46.128C72.385 42.3307 72.5343 38.4693 72.833 34.544C73.1317 30.576 73.4943 26.3307 73.921 21.808C72.9397 24.7093 71.8517 27.824 70.657 31.152C69.4623 34.48 68.2037 37.7867 66.881 41.072C65.601 44.3147 64.2783 47.4293 62.913 50.416C61.5903 53.36 60.289 55.92 59.009 58.096C57.8997 58.608 56.8117 58.864 55.745 58.864C54.3797 58.6933 53.0783 58.352 51.841 57.84C50.6463 57.328 49.793 56.7093 49.281 55.984Z" fill="white"/>
</g>
<defs>
<filter id="filter0_d_5_4" x="0.824005" y="0.768005" width="117.209" height="72.608" filterUnits="userSpaceOnUse" color-interpolation-filters="sRGB">
<feFlood flood-opacity="0" result="BackgroundImageFix"/>
<feColorMatrix in="SourceAlpha" type="matrix" values="0 0 0 0 0 0 0 0 0 0 0 0 0 0 0 0 0 0 127 0" result="hardAlpha"/>
<feOffset dy="4"/>
<feGaussianBlur stdDeviation="5"/>
<feComposite in2="hardAlpha" operator="out"/>
<feColorMatrix type="matrix" values="0 0 0 0 0 0 0 0 0 0 0 0 0 0 0 0 0 0 0.25 0"/>
<feBlend mode="normal" in2="BackgroundImageFix" result="effect1_dropShadow_5_4"/>
<feBlend mode="normal" in="SourceGraphic" in2="effect1_dropShadow_5_4" result="shape"/>
</filter>
</defs>
</svg>
